<svg xmlns="http://www.w3.org/2000/svg" viewBox="0 0 64 80" x="0px" y="0px"><g><polygon points="19.484 30 15.643 30 15.067 33 18.908 33 19.484 30"/><polygon points="19.985 38 23.827 38 24.402 35 20.561 35 19.985 38"/><polygon points="25.863 38 29.705 38 30.28 35 26.438 35 25.863 38"/><polygon points="25.361 30 21.52 30 20.945 33 24.786 33 25.361 30"/><path d="M12.093,37.887,12.647,35H9.142A4,4,0,0,0,12.093,37.887Z"/><polygon points="14.108 38 17.949 38 18.525 35 14.683 35 14.108 38"/><path d="M13.606,30H13a4,4,0,0,0-3.858,3h3.889Z"/><path d="M13,40c-.026,0-.052,0-.078,0-.008,0-.015,0-.023,0a.989.989,0,0,1-.121-.011,5.962,5.962,0,0,1-3.1-.995A19.025,19.025,0,0,0,28,53H22.246l-2.207,7.726a1,1,0,1,0,1.922.548L22.611,59H41.389l.65,2.274A1,1,0,0,0,43,62a1.053,1.053,0,0,0,.275-.038,1,1,0,0,0,.686-1.236L41.754,53H36A19.025,19.025,0,0,0,54.32,38.994,5.97,5.97,0,0,1,51,40ZM40.246,55l.571,2H23.183l.571-2Z"/><polygon points="42.994 30 39.153 30 38.577 33 42.419 33 42.994 30"/><path d="M49.373,38H51a4,4,0,0,0,3.858-3H49.949Z"/><polygon points="43.496 38 47.337 38 47.912 35 44.071 35 43.496 38"/><polygon points="31.239 30 27.398 30 26.822 33 30.664 33 31.239 30"/><path d="M51,30h-.092l-.576,3h4.526A4,4,0,0,0,51,30Z"/><polygon points="48.872 30 45.03 30 44.455 33 48.296 33 48.872 30"/><polygon points="37.618 38 41.459 38 42.035 35 38.194 35 37.618 38"/><polygon points="31.741 38 35.582 38 36.157 35 32.316 35 31.741 38"/><polygon points="37.117 30 33.275 30 32.7 33 36.541 33 37.117 30"/><path d="M58,20H49V16H43v4H40.9a5,5,0,0,0-9.8,0H29V16H23v4H20.9a5,5,0,0,0-9.8,0H9a1,1,0,0,0,0,2h2.1a5,5,0,0,0,9.8,0H23v4h6V22h2.1a5,5,0,0,0,9.8,0H43v4h6V22h9a1,1,0,0,0,0-2Z"/><path d="M16.8,10l-1.63,2.445a1,1,0,0,0,1.664,1.11l2-3a1,1,0,0,0,0-1.11L17.2,7l1.63-2.445a1,1,0,0,0-1.664-1.11l-2,3a1,1,0,0,0,0,1.11Z"/><path d="M26.8,10l-1.63,2.445a1,1,0,0,0,1.664,1.11l2-3a1,1,0,0,0,0-1.11L27.2,7l1.63-2.445a1,1,0,1,0-1.664-1.11l-2,3a1,1,0,0,0,0,1.11Z"/><path d="M36.8,10l-1.63,2.445a1,1,0,0,0,1.664,1.11l2-3a1,1,0,0,0,0-1.11L37.2,7l1.63-2.445a1,1,0,1,0-1.664-1.11l-2,3a1,1,0,0,0,0,1.11Z"/><path d="M45.8,10l-1.63,2.445a1,1,0,0,0,1.664,1.11l2-3a1,1,0,0,0,0-1.11L46.2,7l1.63-2.445a1,1,0,1,0-1.664-1.11l-2,3a1,1,0,0,0,0,1.11Z"/></g><text x="0" y="79" fill="#000000" font-size="5px" font-weight="bold" font-family="'Helvetica Neue', Helvetica, Arial-Unicode, Arial, Sans-serif">Created by supalerk laipawat</text><text x="0" y="84" fill="#000000" font-size="5px" font-weight="bold" font-family="'Helvetica Neue', Helvetica, Arial-Unicode, Arial, Sans-serif">from the Noun Project</text></svg>