<svg xmlns="http://www.w3.org/2000/svg" xmlns:xlink="http://www.w3.org/1999/xlink" version="1.1" x="0px" y="0px" viewBox="0 0 100 125" style="enable-background:new 0 0 100 100;" xml:space="preserve"><g><polygon points="57,26.4 43,26.4 36.5,36.5 63.6,36.5  "/><rect x="42.9" y="21.6" width="14.1" height="4"/><path d="M36.2,39.7h27.6c0.7,0,1.3-0.6,1.3-1.3c0-0.7-0.6-1.3-1.3-1.3H36.2c-0.7,0-1.3,0.6-1.3,1.3C35,39.2,35.5,39.7,36.2,39.7z    M61.8,37.7c0.4,0,0.8,0.3,0.8,0.8c0,0.4-0.3,0.8-0.8,0.8c-0.4,0-0.8-0.3-0.8-0.8C61.1,38.1,61.4,37.7,61.8,37.7z M59.3,37.7   c0.4,0,0.8,0.3,0.8,0.8c0,0.4-0.3,0.8-0.8,0.8c-0.4,0-0.8-0.3-0.8-0.8C58.6,38.1,58.9,37.7,59.3,37.7z M56.8,37.7   c0.4,0,0.8,0.3,0.8,0.8c0,0.4-0.3,0.8-0.8,0.8c-0.4,0-0.8-0.3-0.8-0.8C56,38.1,56.4,37.7,56.8,37.7z"/><path d="M63.6,53.3H36.5c-0.8,0-1.5,0.7-1.5,1.5v4h30.1v-4C65.1,54,64.4,53.3,63.6,53.3z M38.3,57.4c-0.7,0-1.3-0.6-1.3-1.3   s0.6-1.3,1.3-1.3c0.7,0,1.3,0.6,1.3,1.3S39.1,57.4,38.3,57.4z M47.3,57.4c-0.7,0-1.3-0.6-1.3-1.3s0.6-1.3,1.3-1.3   c0.7,0,1.3,0.6,1.3,1.3S48,57.4,47.3,57.4z M50.9,57.4c-0.7,0-1.3-0.6-1.3-1.3s0.6-1.3,1.3-1.3c0.7,0,1.3,0.6,1.3,1.3   S51.6,57.4,50.9,57.4z M54.5,57.4c-0.7,0-1.3-0.6-1.3-1.3s0.6-1.3,1.3-1.3c0.7,0,1.3,0.6,1.3,1.3S55.2,57.4,54.5,57.4z M58.1,57.4   c-0.7,0-1.3-0.6-1.3-1.3s0.6-1.3,1.3-1.3c0.7,0,1.3,0.6,1.3,1.3S58.8,57.4,58.1,57.4z M61.7,57.4c-0.7,0-1.3-0.6-1.3-1.3   s0.6-1.3,1.3-1.3c0.7,0,1.3,0.6,1.3,1.3S62.5,57.4,61.7,57.4z"/><path d="M34.9,76.4c0,1.1,0.9,2,2.1,2h26c1.1,0,2-0.9,2-2V59.7H34.9V76.4z M61.9,73.5c0,0.9-0.8,1.7-1.7,1.7H40.1   c-0.9,0-1.7-0.8-1.7-1.7v-9.8c0-0.9,0.8-1.7,1.7-1.7h20.1c0.9,0,1.7,0.8,1.7,1.7V73.5z"/><path d="M39.3,50.9c-0.8,0-1.5,0.7-1.6,1.5h10c-0.2-0.8-0.8-1.5-1.6-1.5H39.3z"/><path d="M54,50.9c-0.8,0-1.5,0.7-1.6,1.5h10c-0.2-0.8-0.8-1.5-1.6-1.5H54z"/><path d="M32.9,53.3h-22c-0.5,0-0.8,0.4-0.8,0.9s0.4,0.9,0.8,0.9h0.4v7.2h21.2v-7.2h0.5c0.5,0,0.8-0.4,0.8-0.9S33.3,53.3,32.9,53.3z    M25.2,58.3h-6.8c-0.5,0-0.8-0.3-0.8-0.7s0.4-0.7,0.8-0.7h6.8c0.5,0,0.8,0.3,0.8,0.7S25.7,58.3,25.2,58.3z"/><path d="M11.2,70.4h21.2v-7.3H11.2V70.4z M18.5,64.8h6.8c0.5,0,0.8,0.4,0.8,0.9c0,0.5-0.4,0.9-0.8,0.9h-6.8c-0.5,0-0.8-0.4-0.8-0.9   C17.6,65.2,18,64.8,18.5,64.8z"/><path d="M11.2,78.4h21.2v-7.2H11.2V78.4z M18.5,72.9h6.8c0.5,0,0.8,0.4,0.8,0.9c0,0.5-0.4,0.9-0.8,0.9h-6.8c-0.5,0-0.8-0.4-0.8-0.9   C17.6,73.3,18,72.9,18.5,72.9z"/><path d="M89.2,53.3h-22c-0.5,0-0.8,0.4-0.8,0.9s0.4,0.9,0.8,0.9h0.3v23.3h21.2V55.1h0.5c0.5,0,0.8-0.4,0.8-0.9S89.6,53.3,89.2,53.3   z M71.5,68.7c0,0.4-0.4,0.8-0.8,0.8s-0.8-0.4-0.8-0.8v-5.7c0-0.4,0.4-0.8,0.8-0.8s0.8,0.4,0.8,0.8V68.7z"/></g><text x="0" y="115" fill="#000000" font-size="5px" font-weight="bold" font-family="'Helvetica Neue', Helvetica, Arial-Unicode, Arial, Sans-serif">Created by Musmellow</text><text x="0" y="120" fill="#000000" font-size="5px" font-weight="bold" font-family="'Helvetica Neue', Helvetica, Arial-Unicode, Arial, Sans-serif">from the Noun Project</text></svg>