<svg id="Layer_35" enable-background="new 0 0 64 64" height="512" viewBox="0 0 64 64" width="512" xmlns="http://www.w3.org/2000/svg"><path d="m34 51h-4v10h-12.5-7.5v-6h-4v6h-3v2h58v-2h-3v-6h-4v6h-7.5-12.5z"/><path d="m14 52c0-.552-.448-1-1-1h-5-5v2h11z"/><path d="m18.895 46c.837.82 1.466 1.849 1.81 3h22.592c.344-1.151.972-2.18 1.81-3h-1.107-24z"/><path d="m19 59.5v-8.5c0-2.757-2.243-5-5-5h-1.438c-1.379 0-2.576-.935-2.91-2.271l-1.622-6.487 1.939-.484 1.621 6.485c.113.445.512.757.972.757h4.438 3c.552 0 1-.448 1-1s-.448-1-1-1h-4.198c-.944 0-1.747-.645-1.952-1.566l-.764-3.438c-.524-2.352-2.572-3.996-4.982-3.996-2.815 0-5.104 2.289-5.104 5.104v5.896c0 2.757 2.243 5 5 5h5c1.654 0 3 1.346 3 3v1 2 4.5c0 .827.673 1.5 1.5 1.5s1.5-.673 1.5-1.5z"/><path d="m10.281 13.575c-.814-.713-1.281-1.742-1.281-2.823 0-2.068 1.683-3.752 3.751-3.752h.186c.936 0 1.831.347 2.523.976l5.54 5.036v-10.012h-18v14h11.195z"/><path d="m12.937 9h-.186c-.966 0-1.751.786-1.751 1.752 0 .505.218.985.599 1.318l13.693 11.981c1.086.951 1.708 2.323 1.708 3.764v16.185h4v-7h2v7h4v-16.185c0-1.441.622-2.813 1.708-3.764l13.694-11.982c.38-.332.598-.812.598-1.317 0-.966-.786-1.752-1.752-1.752h-.185c-.437 0-.854.162-1.178.456l-8.395 7.632c-1.34 1.216-2.993 1.994-4.781 2.25l-2.426.346.752 8.694-3.035 3.036-3.036-3.036.751-8.694-2.425-.346c-1.788-.256-3.441-1.034-4.78-2.25l-8.396-7.632c-.323-.294-.741-.456-1.177-.456z"/><path d="m30.682 17.801 1.318.189 1.318-.188c2.115-.583 3.682-2.504 3.682-4.802 0-2.757-2.243-5-5-5s-5 2.243-5 5c0 2.298 1.567 4.219 3.682 4.801z"/><path d="m31.696 19.985-.66 7.637.964.964.964-.964-.661-7.637c-.101.004-.201.015-.303.015-.103 0-.203-.011-.304-.015z"/><circle cx="9" cy="27" r="4"/><circle cx="55" cy="27" r="4"/><path d="m47 3v6.376l1.54-1.4c.692-.629 1.588-.976 2.523-.976h.185c2.068 0 3.752 1.684 3.752 3.752 0 1.081-.467 2.11-1.28 2.822l-3.915 3.426h11.195v-14zm12 12h-4v-2h4zm0-4h-2v-2h2zm0-4h-2v-2h2z"/><path d="m51 51c-.552 0-1 .448-1 1v1h11v-2h-5z"/><path d="m55.896 33c-2.41 0-4.459 1.644-4.982 3.996l-.764 3.438c-.205.921-1.007 1.566-1.952 1.566h-4.198c-.552 0-1 .448-1 1s.448 1 1 1h2 5.438c.46 0 .858-.312.971-.758l1.621-6.484 1.939.484-1.621 6.485c-.333 1.338-1.531 2.273-2.91 2.273h-1.438c-2.757 0-5 2.243-5 5v8.5c0 .827.673 1.5 1.5 1.5s1.5-.673 1.5-1.5v-4.5-2-1c0-1.654 1.346-3 3-3h5c2.757 0 5-2.243 5-5v-5.896c0-2.815-2.289-5.104-5.104-5.104z"/></svg>