<svg xmlns="http://www.w3.org/2000/svg" xmlns:xlink="http://www.w3.org/1999/xlink" version="1.1" x="0px" y="0px" viewBox="0 0 50 62.5" enable-background="new 0 0 50 50" xml:space="preserve"><g><path fill-rule="evenodd" clip-rule="evenodd" d="M29.55,23.561c-1.691,0.187-2.973,0.319-4.506,1.163   c-1.538-0.843-2.811-0.976-4.506-1.163l-0.256,2.325c2.268,0.25,2.848,0.338,4.764,1.607c1.877-1.252,2.507-1.358,4.762-1.607   L29.55,23.561z M39.987,27.068h2.882V41.88h-3.908L39.987,27.068z M39.575,24.197c-0.87-2.027-1.615-4.381-2.192-7.06   c-0.532-2.474-0.916-5.211-1.119-8.206h6.605v15.266H39.575z M4.261,8.931v35.82h41.48V8.931h1.224v0.811h1.817V8.931H50V6.06   h-1.219v-0.81h-1.817v0.81H3.035V5.249H1.219V6.06H0v2.872h1.219v0.81h1.817v-0.81H4.261z M7.132,27.068h2.882l1.025,14.813H7.132   V27.068z M12.618,17.136c-0.574,2.669-1.322,5.024-2.197,7.061H7.132V8.931h6.605C13.534,11.926,13.149,14.662,12.618,17.136z    M21.147,39.637c1.298,0.648,2.596,0.966,3.893,0.961c1.299-0.004,2.574-0.327,3.824-0.96c1.293,0.647,2.584,0.966,3.873,0.966   c1.181,0,2.347-0.268,3.495-0.796l-0.144,2.072H13.911l-0.144-2.081c1.186,0.539,2.372,0.804,3.557,0.799   C18.623,40.594,19.898,40.27,21.147,39.637z M16.953,36.12c1.361-0.005,2.698-0.346,4.008-1.015   c1.361,0.684,2.722,1.02,4.082,1.015c1.361-0.005,2.698-0.346,4.008-1.015c1.36,0.684,2.722,1.02,4.082,1.015   c1.153-0.004,2.289-0.25,3.405-0.731l-0.09,1.298c-1.215,0.726-2.232,1.282-3.711,1.282c-1.547,0-2.613-0.607-3.885-1.355   c-1.245,0.747-2.287,1.355-3.812,1.36c-1.551,0.005-2.631-0.611-3.906-1.36c-1.245,0.746-2.287,1.355-3.811,1.36   c-1.483,0.005-2.544-0.559-3.772-1.28l-0.091-1.313C14.625,35.879,15.79,36.124,16.953,36.12z M12.806,25.902   c1.051-2.326,1.945-5.05,2.616-8.171c0.567-2.637,0.975-5.571,1.183-8.799h16.789c0.208,3.229,0.617,6.163,1.183,8.8   c0.668,3.103,1.561,5.825,2.617,8.162l-0.444,6.41c-1.16,0.695-2.232,1.186-3.618,1.19c-1.624,0.005-2.757-0.63-4.096-1.415   c-1.306,0.781-2.399,1.409-3.995,1.415c-1.623,0.005-2.757-0.63-4.095-1.415c-1.306,0.781-2.399,1.409-3.995,1.415   c-1.41,0.005-2.517-0.491-3.704-1.186L12.806,25.902z M25.45,18.324c-1.695,0.187-2.97,0.319-4.506,1.162   c-1.542-0.843-2.807-0.975-4.506-1.162l-0.257,2.325c2.256,0.249,2.882,0.36,4.764,1.607c1.873-1.252,2.513-1.359,4.762-1.607   L25.45,18.324z"/></g><text x="0" y="65" fill="#000000" font-size="5px" font-weight="bold" font-family="'Helvetica Neue', Helvetica, Arial-Unicode, Arial, Sans-serif"></text><text x="0" y="70" fill="#000000" font-size="5px" font-weight="bold" font-family="'Helvetica Neue', Helvetica, Arial-Unicode, Arial, Sans-serif"></text></svg>