<svg xmlns="http://www.w3.org/2000/svg" viewBox="0 0 32 40" x="0px" y="0px"><title>Artboard 47</title><g data-name="Layer 2"><path d="M27.5,1.5h-14a3.5,3.5,0,0,0,0,7h14a3.5,3.5,0,0,0,0-7Zm0,5h-14a1.5,1.5,0,0,1,0-3h14a1.5,1.5,0,0,1,0,3Z"/><path d="M27.5,12.5h-14a3.5,3.5,0,0,0,0,7h14a3.5,3.5,0,0,0,0-7Zm0,5h-14a1.5,1.5,0,0,1,0-3h14a1.5,1.5,0,0,1,0,3Z"/><path d="M27.5,23.5h-14a3.5,3.5,0,0,0,0,7h14a3.5,3.5,0,0,0,0-7Zm0,5h-14a1.5,1.5,0,0,1,0-3h14a1.5,1.5,0,0,1,0,3Z"/><path d="M4.5,8.5A3.5,3.5,0,1,0,1,5,3.5,3.5,0,0,0,4.5,8.5Zm0-5A1.5,1.5,0,1,1,3,5,1.5,1.5,0,0,1,4.5,3.5Z"/><path d="M4.5,19.5A3.5,3.5,0,1,0,1,16,3.5,3.5,0,0,0,4.5,19.5Zm0-5A1.5,1.5,0,1,1,3,16,1.5,1.5,0,0,1,4.5,14.5Z"/><path d="M4.5,30.5A3.5,3.5,0,1,0,1,27,3.5,3.5,0,0,0,4.5,30.5Zm0-5A1.5,1.5,0,1,1,3,27,1.5,1.5,0,0,1,4.5,25.5Z"/></g><text x="0" y="47" fill="#000000" font-size="5px" font-weight="bold" font-family="'Helvetica Neue', Helvetica, Arial-Unicode, Arial, Sans-serif">Created by endang firmansyah</text><text x="0" y="52" fill="#000000" font-size="5px" font-weight="bold" font-family="'Helvetica Neue', Helvetica, Arial-Unicode, Arial, Sans-serif">from the Noun Project</text></svg>