<?xml version="1.0"?>
<svg xmlns="http://www.w3.org/2000/svg" viewBox="0 0 64 64" width="512" height="512"><g id="Food-Store"><rect x="34" y="46" width="12.001" height="6"/><path d="M17,31v4a3,3,0,0,0,6,0V27.373a12.965,12.965,0,0,1-3.076-4.564A12.816,12.816,0,0,0,17,31Z"/><path d="M36,38a3,3,0,0,0,3-3V28.95a12.958,12.958,0,0,1-6,2V35A3,3,0,0,0,36,38Z"/><path d="M28,38a3,3,0,0,0,3-3V30.954a12.958,12.958,0,0,1-6-2V35A3,3,0,0,0,28,38Z"/><path d="M21,18a11.043,11.043,0,0,0,3.668,8.207,10.995,10.995,0,0,0,18.01-5.573A10.856,10.856,0,0,0,43,18a4.024,4.024,0,0,0-.014-.439c0-.022,0-.044,0-.067a10.992,10.992,0,0,0-21.962,0A4.584,4.584,0,0,0,21,18Zm11-5a5,5,0,1,1-5,5A5.006,5.006,0,0,1,32,13Z"/><circle cx="32" cy="18" r="3"/><path d="M41,27.373V35a3,3,0,0,0,6,0V31a12.816,12.816,0,0,0-2.924-8.191A12.947,12.947,0,0,1,41,27.373Z"/><path d="M47,20a2.007,2.007,0,0,1,.061-.468,16.851,16.851,0,0,0-2.106-.793,12.832,12.832,0,0,1-.231,1.81A14.974,14.974,0,0,1,47,23.522Z"/><path d="M16.939,19.532A2.007,2.007,0,0,1,17,20v3.522a14.974,14.974,0,0,1,2.276-2.973,12.651,12.651,0,0,1-.231-1.81A16.851,16.851,0,0,0,16.939,19.532Z"/><path d="M49,35a3,3,0,0,0,3,3,2.634,2.634,0,0,0,.729-.093A2.994,2.994,0,0,0,55,35a1,1,0,0,1,1-1h.971A16.877,16.877,0,0,0,53,24.049V28a2,2,0,0,1-2,2H49c-.017,0-.033,0-.05,0,.022.334.05.667.05,1Z"/><path d="M19,46a1,1,0,0,0-1,1V60h8V47a1,1,0,0,0-1-1Zm6,9H23V51h2Z"/><path d="M13,30a2,2,0,0,1-2-2V24.083A17,17,0,0,0,7.03,34H8a1,1,0,0,1,1,1,2.987,2.987,0,0,0,2.247,2.9A2.7,2.7,0,0,0,12,38a3,3,0,0,0,3-3V31c0-.338.028-.671.05-1-.017,0-.033,0-.05,0Z"/><rect x="13" y="20" width="2.001" height="8"/><rect x="49" y="20" width="2.001" height="8"/><path d="M16,37.969A4.982,4.982,0,0,1,12,40V59a1,1,0,0,0,1,1h3V47a3,3,0,0,1,3-3h6a3,3,0,0,1,3,3V60H51a1,1,0,0,0,1-1V40a4.982,4.982,0,0,1-4-2.031,4.954,4.954,0,0,1-8,0,4.954,4.954,0,0,1-8,0,4.954,4.954,0,0,1-8,0,4.954,4.954,0,0,1-8,0ZM32,46a2,2,0,0,1,2-2H46a2,2,0,0,1,2,2v6a2,2,0,0,1-2,2H34a2,2,0,0,1-2-2Z"/><path d="M53,7c0-2.21-1.34-4-3-4s-3,1.79-3,4a4.077,4.077,0,0,0,2,3.756V18h2V10.756A4.077,4.077,0,0,0,53,7Z"/><path d="M16,9a1,1,0,0,1-1,1V2H13v8a1,1,0,0,1-1-1V2H10V9a3,3,0,0,0,3,3v6h2V12a3,3,0,0,0,3-3V2H16Z"/></g></svg>
