<svg xmlns="http://www.w3.org/2000/svg" xmlns:xlink="http://www.w3.org/1999/xlink" version="1.1" x="0px" y="0px" viewBox="0 0 170 212.5" style="enable-background:new 0 0 170 170;" xml:space="preserve"><path d="M139.525,142.648H31.775V72.582h-7v73.567c0,1.933,1.567,3.5,3.5,3.5h114.75c1.933,0,3.5-1.567,3.5-3.5V72.582h-7V142.648z"/><path d="M86.701,20.792c-1.058-0.588-2.344-0.588-3.401,0L4.999,64.324L8.4,70.442L85,27.856l76.6,42.586l3.401-6.118L86.701,20.792  z"/><path d="M119.332,114.875l-10.073-10.073l-4.95,4.95l4.098,4.098H71.823l2.136-2.136l-4.886-4.886l-2.136,2.136V72.38l4.098,4.098  l4.95-4.95L65.912,61.455c-1.366-1.366-3.583-1.366-4.949,0L50.889,71.528l4.95,4.95l4.098-4.098v41.47v7h7h41.47l-4.098,4.098  l4.95,4.95l10.073-10.073C120.699,118.458,120.699,116.243,119.332,114.875z"/><rect x="81.955" y="91.923" transform="matrix(0.7071 -0.7071 0.7071 0.7071 -42.426 88.3294)" width="6.909" height="6.909"/><rect x="90.124" y="83.754" transform="matrix(0.7071 -0.7071 0.7071 0.7071 -34.2573 91.7129)" width="6.909" height="6.909"/><rect x="73.787" y="100.091" transform="matrix(0.7071 -0.7071 0.7071 0.7071 -50.5947 84.9458)" width="6.909" height="6.909"/><path d="M96.862,79.04l4.886,4.886l2.359-2.359v5.86h7V73.181c0-1.933-1.567-3.5-3.5-3.5H93.362v7h5.859L96.862,79.04z"/><text x="0" y="185" fill="#000000" font-size="5px" font-weight="bold" font-family="'Helvetica Neue', Helvetica, Arial-Unicode, Arial, Sans-serif"></text><text x="0" y="190" fill="#000000" font-size="5px" font-weight="bold" font-family="'Helvetica Neue', Helvetica, Arial-Unicode, Arial, Sans-serif"></text></svg>